<svg width="97" height="20" viewBox="0 0 97 20" fill="none" xmlns="http://www.w3.org/2000/svg">
<path d="M5.992 2.224C8.984 2.224 11.28 2.96 12.88 4.432C14.48 5.888 15.28 7.92 15.28 10.528C15.28 13.136 14.496 15.2 12.928 16.72C11.376 18.24 9 19 5.8 19H0.0640001V2.224H5.992ZM6.184 15.688C7.896 15.688 9.208 15.256 10.12 14.392C11.048 13.528 11.512 12.272 11.512 10.624C11.512 8.976 11.048 7.712 10.12 6.832C9.208 5.936 7.8 5.488 5.896 5.488H3.808V15.688H6.184ZM21.7087 19H18.1087V6.088H21.7087V19ZM18.3967 4.456C17.9967 4.04 17.7967 3.536 17.7967 2.944C17.7967 2.352 17.9967 1.856 18.3967 1.456C18.8127 1.04 19.3167 0.831999 19.9087 0.831999C20.5007 0.831999 20.9967 1.04 21.3967 1.456C21.8127 1.856 22.0207 2.352 22.0207 2.944C22.0207 3.536 21.8127 4.04 21.3967 4.456C20.9967 4.856 20.5007 5.056 19.9087 5.056C19.3167 5.056 18.8127 4.856 18.3967 4.456ZM28.6965 19L23.5845 6.064H27.3285L30.5445 14.2L33.7605 6.064H37.5045L32.3925 19H28.6965ZM50.563 17.128C49.107 18.504 47.395 19.192 45.427 19.192C43.475 19.192 41.859 18.592 40.579 17.392C39.299 16.176 38.659 14.552 38.659 12.52C38.659 10.488 39.307 8.872 40.603 7.672C41.915 6.472 43.459 5.872 45.235 5.872C47.011 5.872 48.515 6.408 49.747 7.48C50.995 8.552 51.619 10.024 51.619 11.896V13.816H42.211C42.323 14.52 42.691 15.096 43.315 15.544C43.939 15.992 44.643 16.216 45.427 16.216C46.691 16.216 47.731 15.792 48.547 14.944L50.563 17.128ZM47.971 11.248C47.891 10.48 47.603 9.888 47.107 9.472C46.611 9.056 46.003 8.848 45.283 8.848C44.579 8.848 43.931 9.064 43.339 9.496C42.747 9.928 42.403 10.512 42.307 11.248H47.971ZM64.0349 14.992C64.0349 16.256 63.5629 17.272 62.6189 18.04C61.6909 18.808 60.5069 19.192 59.0669 19.192C58.1069 19.192 57.1069 19.024 56.0669 18.688C55.0269 18.336 54.0909 17.824 53.2589 17.152L54.8429 14.896C56.1869 15.936 57.6189 16.456 59.1389 16.456C59.6029 16.456 59.9709 16.368 60.2429 16.192C60.5149 16 60.6509 15.752 60.6509 15.448C60.6509 15.144 60.4589 14.864 60.0749 14.608C59.7069 14.352 59.1629 14.112 58.4429 13.888C57.7389 13.664 57.1949 13.472 56.8109 13.312C56.4429 13.152 56.0189 12.92 55.5389 12.616C54.5629 12.008 54.0749 11.112 54.0749 9.928C54.0749 8.728 54.5549 7.752 55.5149 7C56.4749 6.248 57.7149 5.872 59.2349 5.872C60.7549 5.872 62.2749 6.384 63.7949 7.408L62.4509 9.808C61.3309 9.04 60.2109 8.656 59.0909 8.656C57.9869 8.656 57.4349 8.96 57.4349 9.568C57.4349 9.904 57.6109 10.168 57.9629 10.36C58.3149 10.552 58.8989 10.776 59.7149 11.032C60.5309 11.288 61.1069 11.488 61.4429 11.632C61.7949 11.76 62.2109 11.968 62.6909 12.256C63.5869 12.8 64.0349 13.712 64.0349 14.992ZM71.0859 8.68V14.464C71.0859 14.96 71.2139 15.352 71.4699 15.64C71.7259 15.912 72.0299 16.048 72.3819 16.048C73.0539 16.048 73.6219 15.744 74.0859 15.136L75.4299 17.656C74.3099 18.68 73.1259 19.192 71.8779 19.192C70.6459 19.192 69.5979 18.784 68.7339 17.968C67.8859 17.152 67.4619 16.04 67.4619 14.632V8.68H65.9499V6.088H67.4619V2.224H71.0859V6.088H74.2059V8.68H71.0859ZM81.0602 19H77.4602V6.088H81.0602V19ZM77.7482 4.456C77.3482 4.04 77.1482 3.536 77.1482 2.944C77.1482 2.352 77.3482 1.856 77.7482 1.456C78.1642 1.04 78.6682 0.831999 79.2602 0.831999C79.8522 0.831999 80.3482 1.04 80.7482 1.456C81.1642 1.856 81.3722 2.352 81.3722 2.944C81.3722 3.536 81.1642 4.04 80.7482 4.456C80.3482 4.856 79.8522 5.056 79.2602 5.056C78.6682 5.056 78.1642 4.856 77.7482 4.456ZM90.7601 16C91.9601 16 93.0401 15.4 94.0001 14.2L96.1361 16.6C94.4721 18.328 92.6721 19.192 90.7361 19.192C88.8001 19.192 87.1601 18.584 85.8161 17.368C84.4881 16.136 83.8241 14.536 83.8241 12.568C83.8241 10.584 84.4961 8.976 85.8401 7.744C87.2001 6.496 88.8081 5.872 90.6641 5.872C91.5921 5.872 92.5281 6.064 93.4721 6.448C94.4321 6.832 95.2721 7.4 95.9921 8.152L94.1201 10.6C93.7041 10.104 93.1921 9.72 92.5841 9.448C91.9921 9.176 91.4001 9.04 90.8081 9.04C89.8641 9.04 89.0481 9.352 88.3601 9.976C87.6881 10.584 87.3521 11.44 87.3521 12.544C87.3521 13.632 87.6881 14.48 88.3601 15.088C89.0481 15.696 89.8481 16 90.7601 16Z" fill="#252B42"/>
</svg>
